<svg width="48" height="48" viewBox="0 0 48 48" fill="none" xmlns="http://www.w3.org/2000/svg">
<path d="M22.5475 7.13642H25.3264C25.6422 7.13642 25.8949 6.88379 25.8949 6.568C25.8949 6.25221 25.6422 5.99958 25.3264 5.99958H22.5475V7.13642ZM22.5475 9.78905H25.3896C25.7054 9.78905 26.0212 9.47326 26.0212 9.15747C26.0212 8.84169 25.7054 8.5259 25.3896 8.5259H22.5475V9.78905ZM27.0317 7.768C27.4106 8.14695 27.6633 8.65221 27.6633 9.22063C27.6633 10.3575 26.7791 11.2417 25.6422 11.2417H21.0317V4.61011H25.5791C26.6528 4.61011 27.537 5.49432 27.537 6.568C27.4738 7.01011 27.2843 7.45221 27.0317 7.768ZM28.1054 19.1364H26.4001L25.8949 17.9996H22.1685L21.6633 19.1364H19.958L23.3054 12.5048H24.8212L28.1054 19.1364ZM24.0001 14.2101L22.8633 16.6101H25.2001L24.0001 14.2101ZM26.2738 20.5891H28.1685L24.8212 24.8838V27.2206H23.2422V24.8838L19.8949 20.5891H21.7896L24.0633 23.6206L26.2738 20.5891ZM35.0527 20.5891V22.0417H30.6317V23.1785H34.9264V24.6312H30.6317V25.8943H35.0527V27.3469H29.0527V20.5891H35.0527ZM39.9159 24.6943H38.7159V27.2206H37.137V20.5891H41.1791C42.3159 20.5891 43.2001 21.5364 43.2001 22.6733C43.2001 23.6206 42.5685 24.3785 41.7475 24.6312L43.7054 27.2206H41.8106L39.9159 24.6943ZM41.0527 21.9785H38.7791V23.2417H41.0527C41.4317 23.2417 41.6843 22.9259 41.6843 22.6101C41.6843 22.2943 41.3685 21.9785 41.0527 21.9785ZM20.5896 27.2206H18.8843L18.3791 26.0838H14.6528L14.1475 27.2206H12.4422L15.7896 20.5891H17.3054L20.5896 27.2206ZM16.4843 22.2943L15.3475 24.6943H17.6843L16.4843 22.2943ZM6.44223 23.1154H9.22118C9.53696 23.1154 9.7896 22.8627 9.7896 22.5469C9.7896 22.2312 9.53696 21.9785 9.22118 21.9785H6.44223V23.1154ZM6.44223 25.768H9.28433C9.60012 25.768 9.91591 25.4522 9.91591 25.1364C9.91591 24.8206 9.60012 24.5048 9.28433 24.5048H6.44223V25.768ZM10.9264 23.7469C11.3054 24.1259 11.558 24.6312 11.558 25.1996C11.558 26.3364 10.6738 27.2206 9.53696 27.2206H4.86328V20.5891H9.41065C10.4843 20.5891 11.3685 21.4733 11.3685 22.5469C11.3685 22.9891 11.1791 23.4312 10.9264 23.7469ZM27.0317 28.6101V29.9996H22.6106V31.1364H26.9054V32.589H22.6106V33.8522H27.0317V35.3048H21.0317V28.6101H27.0317ZM25.8949 38.9048C25.8949 38.5259 25.6422 38.2733 25.2633 38.2733H22.5475V39.5364H25.2633C25.5791 39.5364 25.8949 39.2838 25.8949 38.9048ZM20.9685 43.5154V36.8206H25.3896C26.5264 36.8206 27.4106 37.768 27.4106 38.9048C27.4106 39.789 26.9054 40.4838 26.1475 40.7996L28.1685 43.4522H26.2738L24.3791 40.9259H22.5475V43.4522L20.9685 43.5154Z" fill="white"/>
<circle cx="23.9996" cy="24" r="22.8996" stroke="white" stroke-width="2.2"/>
</svg>
